<svg xmlns="http://www.w3.org/2000/svg" xmlns:xlink="http://www.w3.org/1999/xlink" width="793" zoomAndPan="magnify" viewBox="0 0 595.5 842.249979" height="1122" preserveAspectRatio="xMidYMid meet" version="1.0"><defs><g/><clipPath id="1caaded476"><path d="M 388 430 L 450.371094 430 L 450.371094 492 L 388 492 Z M 388 430 " clip-rule="nonzero"/></clipPath><clipPath id="c0bca8dc76"><path d="M 145.136719 476 L 258 476 L 258 611 L 145.136719 611 Z M 145.136719 476 " clip-rule="nonzero"/></clipPath></defs><path fill="#000000" d="M 325.46875 539.351562 L 396.886719 467.996094 L 412.757812 483.855469 L 341.339844 555.210938 Z M 325.46875 539.351562 " fill-opacity="1" fill-rule="nonzero"/><path fill="#000000" d="M 313.800781 543.414062 L 304.035156 533.660156 L 292.816406 566.847656 C 297.757812 568.488281 302.0625 571.160156 305.71875 574.863281 C 309.308594 578.621094 311.890625 582.976562 313.460938 587.925781 L 346.679688 576.714844 L 337.195312 567.242188 Z M 313.800781 543.414062 " fill-opacity="1" fill-rule="nonzero"/><path fill="#000000" d="M 289.113281 577.613281 L 281.929688 598.691406 L 303.027344 591.515625 C 302.472656 589.90625 301.742188 588.378906 300.839844 586.933594 C 299.933594 585.488281 298.882812 584.164062 297.675781 582.957031 C 296.46875 581.753906 295.144531 580.699219 293.699219 579.796875 C 292.253906 578.894531 290.722656 578.167969 289.113281 577.613281 Z M 289.113281 577.613281 " fill-opacity="1" fill-rule="nonzero"/><g clip-path="url(#1caaded476)"><path fill="#000000" d="M 448.460938 471.933594 L 408.847656 432.300781 C 408.589844 432.039062 408.304688 431.808594 408 431.605469 C 407.695312 431.402344 407.371094 431.234375 407.03125 431.09375 C 406.691406 430.953125 406.34375 430.847656 405.984375 430.777344 C 405.625 430.703125 405.261719 430.667969 404.894531 430.667969 C 404.527344 430.667969 404.164062 430.703125 403.800781 430.777344 C 403.441406 430.847656 403.09375 430.953125 402.753906 431.09375 C 402.414062 431.230469 402.089844 431.402344 401.785156 431.605469 C 401.480469 431.808594 401.199219 432.039062 400.9375 432.300781 L 388.929688 444.183594 L 400.824219 456.125 L 436.511719 491.78125 L 448.460938 479.894531 C 448.726562 479.636719 448.960938 479.351562 449.167969 479.042969 C 449.371094 478.738281 449.546875 478.414062 449.691406 478.070312 C 449.832031 477.730469 449.941406 477.378906 450.011719 477.015625 C 450.085938 476.652344 450.121094 476.285156 450.121094 475.914062 C 450.121094 475.546875 450.085938 475.179688 450.011719 474.816406 C 449.941406 474.453125 449.832031 474.101562 449.691406 473.757812 C 449.546875 473.417969 449.371094 473.09375 449.167969 472.785156 C 448.960938 472.480469 448.726562 472.195312 448.460938 471.933594 Z M 448.460938 471.933594 " fill-opacity="1" fill-rule="nonzero"/></g><path fill="#000000" d="M 349.253906 563.105469 L 420.667969 491.753906 L 428.566406 499.640625 L 357.148438 570.996094 Z M 349.253906 563.105469 " fill-opacity="1" fill-rule="nonzero"/><path fill="#000000" d="M 309.59375 523.472656 L 381.011719 452.117188 L 388.945312 460.046875 L 317.53125 531.402344 Z M 309.59375 523.472656 " fill-opacity="1" fill-rule="nonzero"/><g clip-path="url(#c0bca8dc76)"><path fill="#000000" d="M 251.742188 599.476562 L 156.355469 599.476562 L 156.355469 577.050781 L 206.855469 577.050781 C 207.222656 577.050781 207.589844 577.015625 207.949219 576.945312 C 208.3125 576.871094 208.660156 576.765625 209.003906 576.625 C 209.34375 576.484375 209.667969 576.3125 209.972656 576.105469 C 210.277344 575.902344 210.5625 575.667969 210.824219 575.410156 C 211.082031 575.148438 211.316406 574.867188 211.519531 574.558594 C 211.726562 574.253906 211.898438 573.929688 212.039062 573.589844 C 212.179688 573.25 212.285156 572.898438 212.359375 572.539062 C 212.429688 572.179688 212.464844 571.8125 212.464844 571.445312 L 212.464844 537.808594 C 212.464844 537.441406 212.429688 537.074219 212.359375 536.714844 C 212.285156 536.351562 212.179688 536.003906 212.039062 535.664062 C 211.898438 535.324219 211.726562 535 211.519531 534.695312 C 211.316406 534.386719 211.082031 534.105469 210.824219 533.84375 C 210.5625 533.582031 210.277344 533.351562 209.972656 533.148438 C 209.667969 532.941406 209.34375 532.769531 209.003906 532.628906 C 208.660156 532.488281 208.3125 532.382812 207.949219 532.308594 C 207.589844 532.238281 207.222656 532.203125 206.855469 532.203125 L 156.355469 532.203125 L 156.355469 509.777344 L 240.519531 509.777344 C 240.890625 509.777344 241.253906 509.742188 241.617188 509.667969 C 241.976562 509.597656 242.328125 509.492188 242.667969 509.351562 C 243.007812 509.210938 243.332031 509.035156 243.636719 508.832031 C 243.945312 508.628906 244.226562 508.394531 244.488281 508.136719 C 244.75 507.875 244.980469 507.589844 245.1875 507.285156 C 245.390625 506.980469 245.5625 506.65625 245.703125 506.316406 C 245.84375 505.976562 245.953125 505.625 246.023438 505.265625 C 246.097656 504.902344 246.132812 504.539062 246.132812 504.171875 L 246.132812 481.746094 C 246.132812 481.378906 246.097656 481.011719 246.023438 480.652344 C 245.953125 480.292969 245.84375 479.941406 245.703125 479.601562 C 245.5625 479.261719 245.390625 478.9375 245.1875 478.632812 C 244.980469 478.324219 244.75 478.042969 244.488281 477.78125 C 244.226562 477.519531 243.945312 477.289062 243.636719 477.085938 C 243.332031 476.878906 243.007812 476.707031 242.667969 476.566406 C 242.328125 476.425781 241.976562 476.320312 241.617188 476.246094 C 241.253906 476.175781 240.890625 476.140625 240.519531 476.140625 C 240.152344 476.140625 239.789062 476.175781 239.425781 476.246094 C 239.066406 476.320312 238.714844 476.425781 238.375 476.566406 C 238.03125 476.707031 237.710938 476.878906 237.402344 477.085938 C 237.097656 477.289062 236.8125 477.519531 236.554688 477.78125 C 236.292969 478.042969 236.058594 478.324219 235.855469 478.632812 C 235.652344 478.9375 235.476562 479.261719 235.335938 479.601562 C 235.195312 479.941406 235.089844 480.292969 235.019531 480.652344 C 234.945312 481.011719 234.910156 481.378906 234.910156 481.746094 L 234.910156 498.566406 L 150.746094 498.566406 C 150.378906 498.566406 150.011719 498.601562 149.652344 498.671875 C 149.289062 498.746094 148.9375 498.851562 148.597656 498.992188 C 148.257812 499.132812 147.933594 499.304688 147.628906 499.507812 C 147.324219 499.714844 147.039062 499.945312 146.777344 500.207031 C 146.519531 500.46875 146.285156 500.75 146.082031 501.054688 C 145.875 501.363281 145.703125 501.683594 145.5625 502.027344 C 145.421875 502.367188 145.316406 502.714844 145.242188 503.078125 C 145.171875 503.4375 145.136719 503.800781 145.136719 504.171875 L 145.136719 537.808594 C 145.136719 538.175781 145.171875 538.539062 145.242188 538.902344 C 145.316406 539.261719 145.421875 539.613281 145.5625 539.953125 C 145.703125 540.292969 145.875 540.617188 146.082031 540.921875 C 146.285156 541.230469 146.519531 541.511719 146.777344 541.773438 C 147.039062 542.03125 147.324219 542.265625 147.628906 542.46875 C 147.933594 542.675781 148.257812 542.847656 148.597656 542.988281 C 148.9375 543.128906 149.289062 543.234375 149.652344 543.304688 C 150.011719 543.378906 150.378906 543.414062 150.746094 543.414062 L 201.246094 543.414062 L 201.246094 565.839844 L 150.746094 565.839844 C 150.378906 565.839844 150.011719 565.875 149.652344 565.945312 C 149.289062 566.019531 148.9375 566.125 148.597656 566.265625 C 148.257812 566.40625 147.933594 566.578125 147.628906 566.785156 C 147.324219 566.988281 147.039062 567.222656 146.777344 567.480469 C 146.519531 567.742188 146.285156 568.023438 146.082031 568.332031 C 145.875 568.636719 145.703125 568.960938 145.5625 569.300781 C 145.421875 569.640625 145.316406 569.992188 145.242188 570.351562 C 145.171875 570.710938 145.136719 571.078125 145.136719 571.445312 L 145.136719 605.082031 C 145.136719 605.449219 145.171875 605.816406 145.242188 606.175781 C 145.316406 606.539062 145.421875 606.886719 145.5625 607.226562 C 145.703125 607.566406 145.875 607.890625 146.082031 608.195312 C 146.285156 608.503906 146.519531 608.785156 146.777344 609.046875 C 147.039062 609.308594 147.324219 609.539062 147.628906 609.742188 C 147.933594 609.949219 148.257812 610.121094 148.597656 610.261719 C 148.9375 610.402344 149.289062 610.507812 149.652344 610.582031 C 150.011719 610.652344 150.378906 610.6875 150.746094 610.6875 L 251.742188 610.6875 C 252.109375 610.6875 252.476562 610.652344 252.835938 610.582031 C 253.199219 610.507812 253.550781 610.402344 253.890625 610.261719 C 254.230469 610.121094 254.554688 609.949219 254.859375 609.742188 C 255.167969 609.539062 255.449219 609.308594 255.710938 609.046875 C 255.96875 608.785156 256.203125 608.503906 256.40625 608.195312 C 256.613281 607.890625 256.785156 607.566406 256.925781 607.226562 C 257.066406 606.886719 257.175781 606.539062 257.246094 606.175781 C 257.316406 605.816406 257.355469 605.449219 257.355469 605.082031 C 257.355469 604.714844 257.316406 604.351562 257.246094 603.988281 C 257.175781 603.628906 257.066406 603.277344 256.925781 602.9375 C 256.785156 602.597656 256.613281 602.273438 256.40625 601.96875 C 256.203125 601.660156 255.96875 601.378906 255.710938 601.117188 C 255.449219 600.859375 255.167969 600.625 254.859375 600.421875 C 254.554688 600.214844 254.230469 600.042969 253.890625 599.902344 C 253.550781 599.761719 253.199219 599.65625 252.835938 599.585938 C 252.476562 599.511719 252.109375 599.476562 251.742188 599.476562 Z M 251.742188 599.476562 " fill-opacity="1" fill-rule="nonzero"/></g><path fill="#000000" d="M 262.121094 348.09375 C 259.671875 346.472656 257.070312 345.140625 254.316406 344.101562 C 251.566406 343.0625 248.734375 342.34375 245.820312 341.941406 C 242.90625 341.539062 239.984375 341.464844 237.054688 341.714844 C 234.125 341.96875 231.257812 342.542969 228.457031 343.441406 C 226.628906 344.007812 224.851562 344.710938 223.125 345.539062 C 221.398438 346.371094 219.742188 347.324219 218.15625 348.398438 C 216.570312 349.472656 215.074219 350.660156 213.664062 351.957031 C 212.253906 353.25 210.945312 354.644531 209.742188 356.132812 C 208.539062 357.621094 207.449219 359.191406 206.476562 360.839844 C 205.503906 362.488281 204.65625 364.203125 203.9375 365.976562 C 203.21875 367.75 202.632812 369.566406 202.179688 371.425781 C 201.730469 373.289062 201.417969 375.171875 201.246094 377.078125 C 201.097656 378.738281 201.058594 380.402344 201.125 382.066406 C 201.191406 383.734375 201.359375 385.386719 201.636719 387.03125 C 201.910156 388.675781 202.289062 390.296875 202.765625 391.890625 C 203.246094 393.488281 203.824219 395.046875 204.5 396.570312 C 205.179688 398.09375 205.949219 399.570312 206.8125 400.996094 C 207.675781 402.421875 208.625 403.789062 209.660156 405.09375 C 210.695312 406.402344 211.8125 407.636719 213.003906 408.800781 C 214.195312 409.96875 215.457031 411.054688 216.785156 412.0625 C 217.859375 412.84375 218.824219 413.742188 219.683594 414.753906 C 220.542969 415.761719 221.273438 416.859375 221.875 418.042969 C 222.472656 419.230469 222.925781 420.464844 223.234375 421.757812 C 223.539062 423.046875 223.691406 424.355469 223.6875 425.683594 L 223.6875 431.289062 L 257.355469 431.289062 L 257.355469 425.683594 C 257.359375 424.382812 257.511719 423.101562 257.8125 421.835938 C 258.117188 420.570312 258.558594 419.355469 259.144531 418.195312 C 259.726562 417.03125 260.4375 415.949219 261.273438 414.953125 C 262.105469 413.953125 263.046875 413.066406 264.085938 412.285156 C 264.714844 411.816406 265.324219 411.328125 265.921875 410.820312 C 266.519531 410.3125 267.101562 409.789062 267.667969 409.246094 C 268.230469 408.707031 268.78125 408.148438 269.3125 407.574219 C 269.84375 407 270.359375 406.410156 270.855469 405.804688 C 271.355469 405.199219 271.832031 404.582031 272.292969 403.945312 C 272.753906 403.3125 273.191406 402.667969 273.613281 402.007812 C 274.035156 401.347656 274.4375 400.675781 274.816406 399.992188 C 275.199219 399.304688 275.558594 398.613281 275.898438 397.90625 C 276.238281 397.199219 276.554688 396.484375 276.851562 395.761719 C 277.148438 395.035156 277.421875 394.304688 277.675781 393.5625 C 277.925781 392.824219 278.15625 392.074219 278.367188 391.320312 C 278.574219 390.566406 278.757812 389.804688 278.921875 389.039062 C 279.082031 388.273438 279.222656 387.503906 279.339844 386.730469 C 279.453125 385.957031 279.546875 385.179688 279.617188 384.398438 C 279.6875 383.621094 279.734375 382.839844 279.757812 382.054688 C 279.777344 381.273438 279.777344 380.492188 279.753906 379.707031 C 279.730469 378.925781 279.683594 378.144531 279.613281 377.367188 C 279.542969 376.585938 279.449219 375.808594 279.332031 375.035156 C 279.214844 374.261719 279.074219 373.492188 278.910156 372.726562 C 278.746094 371.960938 278.558594 371.199219 278.351562 370.445312 C 278.140625 369.691406 277.910156 368.945312 277.65625 368.203125 C 277.402344 367.464844 277.128906 366.730469 276.832031 366.007812 C 276.535156 365.28125 276.214844 364.570312 275.875 363.863281 C 275.535156 363.160156 275.171875 362.464844 274.792969 361.78125 C 274.410156 361.097656 274.007812 360.425781 273.585938 359.765625 C 273.164062 359.105469 272.722656 358.460938 272.261719 357.828125 C 271.800781 357.195312 271.320312 356.574219 270.824219 355.972656 C 270.324219 355.367188 269.808594 354.777344 269.277344 354.203125 C 268.742188 353.632812 268.195312 353.074219 267.628906 352.53125 C 267.0625 351.992188 266.480469 351.46875 265.882812 350.964844 C 265.285156 350.457031 264.671875 349.96875 264.042969 349.5 C 263.417969 349.03125 262.777344 348.582031 262.121094 348.148438 Z M 262.964844 386.441406 C 262.597656 386.441406 262.230469 386.40625 261.871094 386.332031 C 261.507812 386.261719 261.15625 386.15625 260.816406 386.015625 C 260.476562 385.871094 260.152344 385.699219 259.847656 385.496094 C 259.539062 385.292969 259.257812 385.058594 258.996094 384.796875 C 258.738281 384.539062 258.503906 384.253906 258.300781 383.949219 C 258.09375 383.644531 257.921875 383.320312 257.78125 382.980469 C 257.640625 382.640625 257.535156 382.289062 257.460938 381.929688 C 257.390625 381.566406 257.355469 381.203125 257.355469 380.835938 C 257.355469 380.285156 257.328125 379.734375 257.273438 379.1875 C 257.21875 378.636719 257.136719 378.09375 257.03125 377.554688 C 256.921875 377.011719 256.789062 376.480469 256.628906 375.953125 C 256.46875 375.425781 256.285156 374.90625 256.070312 374.398438 C 255.859375 373.890625 255.625 373.390625 255.367188 372.90625 C 255.105469 372.421875 254.824219 371.949219 254.515625 371.492188 C 254.210938 371.03125 253.882812 370.589844 253.53125 370.164062 C 253.183594 369.738281 252.8125 369.332031 252.421875 368.941406 C 252.035156 368.550781 251.625 368.183594 251.199219 367.832031 C 250.773438 367.484375 250.332031 367.15625 249.871094 366.851562 C 249.414062 366.542969 248.941406 366.261719 248.457031 366 C 247.96875 365.742188 247.472656 365.507812 246.960938 365.296875 C 246.453125 365.085938 245.933594 364.898438 245.40625 364.738281 C 244.878906 364.578125 244.34375 364.445312 243.804688 364.339844 C 243.265625 364.230469 242.71875 364.152344 242.171875 364.097656 C 241.621094 364.042969 241.070312 364.015625 240.519531 364.015625 C 240.152344 364.015625 239.789062 363.980469 239.425781 363.90625 C 239.066406 363.835938 238.714844 363.730469 238.375 363.589844 C 238.03125 363.449219 237.710938 363.273438 237.402344 363.070312 C 237.097656 362.867188 236.8125 362.632812 236.554688 362.375 C 236.292969 362.113281 236.058594 361.832031 235.855469 361.523438 C 235.652344 361.21875 235.476562 360.894531 235.335938 360.554688 C 235.195312 360.214844 235.089844 359.863281 235.019531 359.503906 C 234.945312 359.140625 234.910156 358.777344 234.910156 358.410156 C 234.910156 358.042969 234.945312 357.675781 235.019531 357.316406 C 235.089844 356.953125 235.195312 356.605469 235.335938 356.265625 C 235.476562 355.925781 235.652344 355.601562 235.855469 355.292969 C 236.058594 354.988281 236.292969 354.707031 236.554688 354.445312 C 236.8125 354.183594 237.097656 353.953125 237.402344 353.75 C 237.710938 353.542969 238.03125 353.371094 238.375 353.230469 C 238.714844 353.089844 239.066406 352.984375 239.425781 352.910156 C 239.789062 352.839844 240.152344 352.804688 240.519531 352.804688 C 241.441406 352.804688 242.355469 352.847656 243.269531 352.9375 C 244.183594 353.027344 245.09375 353.164062 245.992188 353.34375 C 246.894531 353.519531 247.785156 353.742188 248.664062 354.011719 C 249.542969 354.277344 250.40625 354.585938 251.257812 354.9375 C 252.105469 355.289062 252.933594 355.679688 253.746094 356.113281 C 254.554688 356.546875 255.34375 357.015625 256.105469 357.527344 C 256.871094 358.039062 257.609375 358.582031 258.320312 359.167969 C 259.027344 359.75 259.707031 360.363281 260.359375 361.011719 C 261.007812 361.664062 261.625 362.34375 262.207031 363.050781 C 262.789062 363.761719 263.335938 364.496094 263.847656 365.261719 C 264.359375 366.023438 264.828125 366.8125 265.261719 367.621094 C 265.695312 368.429688 266.089844 369.257812 266.441406 370.105469 C 266.792969 370.957031 267.101562 371.820312 267.367188 372.699219 C 267.632812 373.574219 267.855469 374.464844 268.035156 375.367188 C 268.214844 376.265625 268.351562 377.171875 268.441406 378.085938 C 268.53125 379 268.574219 379.917969 268.574219 380.835938 C 268.574219 381.203125 268.539062 381.566406 268.46875 381.929688 C 268.394531 382.289062 268.289062 382.640625 268.148438 382.980469 C 268.007812 383.320312 267.835938 383.644531 267.628906 383.949219 C 267.425781 384.253906 267.191406 384.539062 266.933594 384.796875 C 266.671875 385.058594 266.386719 385.292969 266.082031 385.496094 C 265.777344 385.699219 265.453125 385.871094 265.113281 386.015625 C 264.769531 386.15625 264.421875 386.261719 264.058594 386.332031 C 263.699219 386.40625 263.332031 386.441406 262.964844 386.441406 Z M 262.964844 386.441406 " fill-opacity="1" fill-rule="nonzero"/><path fill="#000000" d="M 223.6875 448.109375 C 223.6875 448.476562 223.722656 448.839844 223.796875 449.203125 C 223.867188 449.5625 223.972656 449.914062 224.113281 450.253906 C 224.257812 450.59375 224.429688 450.917969 224.632812 451.222656 C 224.839844 451.53125 225.070312 451.8125 225.332031 452.074219 C 225.59375 452.332031 225.875 452.566406 226.183594 452.769531 C 226.488281 452.976562 226.8125 453.148438 227.152344 453.289062 C 227.492188 453.429688 227.84375 453.535156 228.203125 453.605469 C 228.566406 453.679688 228.929688 453.714844 229.300781 453.714844 L 251.742188 453.714844 C 252.109375 453.714844 252.476562 453.679688 252.835938 453.605469 C 253.199219 453.535156 253.550781 453.429688 253.890625 453.289062 C 254.230469 453.148438 254.554688 452.976562 254.859375 452.769531 C 255.167969 452.566406 255.449219 452.332031 255.710938 452.074219 C 255.96875 451.8125 256.203125 451.53125 256.40625 451.222656 C 256.613281 450.917969 256.785156 450.59375 256.925781 450.253906 C 257.066406 449.914062 257.175781 449.5625 257.246094 449.203125 C 257.316406 448.839844 257.355469 448.476562 257.355469 448.109375 L 257.355469 442.503906 L 223.6875 442.503906 Z M 223.6875 448.109375 " fill-opacity="1" fill-rule="nonzero"/><path fill="#000000" d="M 240.519531 319.167969 C 240.890625 319.167969 241.253906 319.128906 241.617188 319.058594 C 241.976562 318.988281 242.328125 318.878906 242.667969 318.738281 C 243.007812 318.597656 243.332031 318.425781 243.636719 318.222656 C 243.945312 318.015625 244.226562 317.785156 244.488281 317.523438 C 244.75 317.265625 244.980469 316.980469 245.1875 316.675781 C 245.390625 316.367188 245.5625 316.046875 245.703125 315.707031 C 245.84375 315.363281 245.953125 315.015625 246.023438 314.652344 C 246.097656 314.292969 246.132812 313.929688 246.132812 313.558594 L 246.132812 302.347656 C 246.132812 301.980469 246.097656 301.613281 246.023438 301.253906 C 245.953125 300.894531 245.84375 300.542969 245.703125 300.203125 C 245.5625 299.863281 245.390625 299.539062 245.1875 299.234375 C 244.980469 298.925781 244.75 298.644531 244.488281 298.382812 C 244.226562 298.121094 243.945312 297.890625 243.636719 297.6875 C 243.332031 297.480469 243.007812 297.308594 242.667969 297.167969 C 242.328125 297.027344 241.976562 296.921875 241.617188 296.847656 C 241.253906 296.777344 240.890625 296.742188 240.519531 296.742188 C 240.152344 296.742188 239.789062 296.777344 239.425781 296.847656 C 239.066406 296.921875 238.714844 297.027344 238.375 297.167969 C 238.03125 297.308594 237.710938 297.480469 237.402344 297.6875 C 237.097656 297.890625 236.8125 298.121094 236.554688 298.382812 C 236.292969 298.644531 236.058594 298.925781 235.855469 299.234375 C 235.652344 299.539062 235.476562 299.863281 235.335938 300.203125 C 235.195312 300.542969 235.089844 300.894531 235.019531 301.253906 C 234.945312 301.613281 234.910156 301.980469 234.910156 302.347656 L 234.910156 313.558594 C 234.910156 313.929688 234.945312 314.292969 235.019531 314.652344 C 235.089844 315.015625 235.195312 315.363281 235.335938 315.707031 C 235.476562 316.046875 235.652344 316.367188 235.855469 316.675781 C 236.058594 316.980469 236.292969 317.265625 236.554688 317.523438 C 236.8125 317.785156 237.097656 318.015625 237.402344 318.222656 C 237.710938 318.425781 238.03125 318.597656 238.375 318.738281 C 238.714844 318.878906 239.066406 318.988281 239.425781 319.058594 C 239.789062 319.128906 240.152344 319.167969 240.519531 319.167969 Z M 240.519531 319.167969 " fill-opacity="1" fill-rule="nonzero"/><path fill="#000000" d="M 188.957031 337.21875 C 189.214844 337.476562 189.5 337.707031 189.804688 337.910156 C 190.109375 338.113281 190.433594 338.285156 190.773438 338.425781 C 191.113281 338.566406 191.460938 338.671875 191.820312 338.742188 C 192.179688 338.8125 192.546875 338.847656 192.910156 338.847656 C 193.277344 338.847656 193.644531 338.8125 194.003906 338.742188 C 194.363281 338.671875 194.710938 338.566406 195.050781 338.425781 C 195.390625 338.285156 195.714844 338.113281 196.019531 337.910156 C 196.324219 337.707031 196.609375 337.476562 196.867188 337.21875 C 197.125 336.957031 197.359375 336.675781 197.5625 336.371094 C 197.765625 336.066406 197.933594 335.742188 198.074219 335.402344 C 198.214844 335.0625 198.320312 334.714844 198.390625 334.355469 C 198.464844 333.996094 198.5 333.632812 198.5 333.265625 C 198.5 332.898438 198.464844 332.535156 198.390625 332.175781 C 198.320312 331.816406 198.214844 331.46875 198.074219 331.128906 C 197.933594 330.789062 197.765625 330.464844 197.5625 330.160156 C 197.359375 329.855469 197.125 329.574219 196.867188 329.3125 L 188.957031 321.351562 C 188.695312 321.089844 188.410156 320.859375 188.101562 320.652344 C 187.796875 320.449219 187.46875 320.273438 187.128906 320.132812 C 186.785156 319.992188 186.433594 319.886719 186.070312 319.8125 C 185.710938 319.742188 185.34375 319.707031 184.972656 319.707031 C 184.605469 319.707031 184.238281 319.742188 183.875 319.816406 C 183.511719 319.886719 183.160156 319.996094 182.820312 320.136719 C 182.476562 320.277344 182.152344 320.449219 181.84375 320.65625 C 181.539062 320.859375 181.253906 321.09375 180.992188 321.355469 C 180.730469 321.617188 180.496094 321.902344 180.292969 322.207031 C 180.085938 322.515625 179.914062 322.839844 179.769531 323.179688 C 179.628906 323.523438 179.523438 323.875 179.449219 324.234375 C 179.378906 324.597656 179.34375 324.964844 179.339844 325.332031 C 179.339844 325.703125 179.378906 326.070312 179.449219 326.429688 C 179.519531 326.792969 179.628906 327.144531 179.769531 327.488281 C 179.910156 327.828125 180.082031 328.152344 180.289062 328.460938 C 180.496094 328.765625 180.726562 329.050781 180.988281 329.3125 Z M 188.957031 337.21875 " fill-opacity="1" fill-rule="nonzero"/><path fill="#000000" d="M 161.96875 386.441406 L 173.191406 386.441406 C 173.558594 386.441406 173.921875 386.40625 174.285156 386.332031 C 174.644531 386.261719 174.996094 386.15625 175.335938 386.015625 C 175.675781 385.871094 176 385.699219 176.308594 385.496094 C 176.613281 385.292969 176.898438 385.058594 177.15625 384.796875 C 177.417969 384.539062 177.648438 384.253906 177.855469 383.949219 C 178.058594 383.644531 178.234375 383.320312 178.375 382.980469 C 178.515625 382.640625 178.621094 382.289062 178.691406 381.929688 C 178.765625 381.566406 178.800781 381.203125 178.800781 380.835938 C 178.800781 380.464844 178.765625 380.101562 178.691406 379.742188 C 178.621094 379.378906 178.515625 379.027344 178.375 378.6875 C 178.234375 378.347656 178.058594 378.027344 177.855469 377.71875 C 177.648438 377.414062 177.417969 377.128906 177.15625 376.871094 C 176.898438 376.609375 176.613281 376.378906 176.308594 376.171875 C 176 375.96875 175.675781 375.796875 175.335938 375.65625 C 174.996094 375.515625 174.644531 375.40625 174.285156 375.335938 C 173.921875 375.265625 173.558594 375.226562 173.191406 375.226562 L 161.96875 375.226562 C 161.597656 375.226562 161.234375 375.265625 160.875 375.335938 C 160.511719 375.40625 160.160156 375.515625 159.820312 375.65625 C 159.480469 375.796875 159.15625 375.96875 158.851562 376.171875 C 158.542969 376.378906 158.261719 376.609375 158 376.871094 C 157.738281 377.128906 157.507812 377.414062 157.300781 377.71875 C 157.097656 378.027344 156.925781 378.347656 156.785156 378.6875 C 156.644531 379.027344 156.535156 379.378906 156.464844 379.742188 C 156.394531 380.101562 156.355469 380.464844 156.355469 380.835938 C 156.355469 381.203125 156.394531 381.566406 156.464844 381.929688 C 156.535156 382.289062 156.644531 382.640625 156.785156 382.980469 C 156.925781 383.320312 157.097656 383.644531 157.300781 383.949219 C 157.507812 384.253906 157.738281 384.539062 158 384.796875 C 158.261719 385.058594 158.542969 385.292969 158.851562 385.496094 C 159.15625 385.699219 159.480469 385.871094 159.820312 386.015625 C 160.160156 386.15625 160.511719 386.261719 160.875 386.332031 C 161.234375 386.40625 161.597656 386.441406 161.96875 386.441406 Z M 161.96875 386.441406 " fill-opacity="1" fill-rule="nonzero"/><path fill="#000000" d="M 184.972656 441.941406 C 185.71875 441.945312 186.4375 441.808594 187.125 441.527344 C 187.816406 441.242188 188.425781 440.839844 188.957031 440.316406 L 196.867188 432.355469 C 197.160156 432.105469 197.425781 431.824219 197.664062 431.519531 C 197.898438 431.214844 198.101562 430.886719 198.269531 430.539062 C 198.4375 430.191406 198.570312 429.828125 198.660156 429.453125 C 198.753906 429.078125 198.808594 428.699219 198.824219 428.3125 C 198.839844 427.925781 198.816406 427.542969 198.75 427.164062 C 198.6875 426.78125 198.582031 426.410156 198.441406 426.050781 C 198.300781 425.691406 198.125 425.351562 197.914062 425.027344 C 197.703125 424.703125 197.460938 424.40625 197.1875 424.132812 C 196.914062 423.859375 196.613281 423.617188 196.289062 423.40625 C 195.964844 423.195312 195.625 423.019531 195.265625 422.878906 C 194.90625 422.734375 194.535156 422.632812 194.152344 422.570312 C 193.773438 422.503906 193.386719 422.480469 193 422.496094 C 192.613281 422.511719 192.234375 422.5625 191.859375 422.65625 C 191.484375 422.75 191.121094 422.882812 190.773438 423.050781 C 190.425781 423.21875 190.097656 423.421875 189.792969 423.65625 C 189.488281 423.890625 189.207031 424.15625 188.957031 424.449219 L 180.988281 432.355469 C 180.726562 432.617188 180.492188 432.898438 180.285156 433.207031 C 180.078125 433.515625 179.902344 433.839844 179.761719 434.179688 C 179.617188 434.519531 179.511719 434.875 179.4375 435.238281 C 179.367188 435.597656 179.328125 435.964844 179.328125 436.335938 C 179.328125 436.707031 179.367188 437.070312 179.4375 437.433594 C 179.511719 437.796875 179.617188 438.148438 179.761719 438.492188 C 179.902344 438.832031 180.078125 439.15625 180.285156 439.464844 C 180.492188 439.773438 180.726562 440.054688 180.988281 440.316406 C 181.519531 440.839844 182.128906 441.242188 182.820312 441.527344 C 183.507812 441.808594 184.226562 441.945312 184.972656 441.941406 Z M 184.972656 441.941406 " fill-opacity="1" fill-rule="nonzero"/><path fill="#000000" d="M 292.085938 440.316406 C 292.347656 440.578125 292.628906 440.8125 292.9375 441.019531 C 293.246094 441.226562 293.570312 441.402344 293.910156 441.542969 C 294.253906 441.6875 294.605469 441.792969 294.96875 441.867188 C 295.332031 441.9375 295.699219 441.972656 296.070312 441.972656 C 296.4375 441.972656 296.804688 441.9375 297.167969 441.867188 C 297.53125 441.792969 297.886719 441.6875 298.226562 441.542969 C 298.570312 441.402344 298.894531 441.226562 299.199219 441.019531 C 299.507812 440.8125 299.792969 440.578125 300.054688 440.316406 C 300.316406 440.054688 300.550781 439.773438 300.757812 439.464844 C 300.964844 439.15625 301.136719 438.832031 301.28125 438.492188 C 301.421875 438.148438 301.53125 437.796875 301.605469 437.433594 C 301.675781 437.070312 301.710938 436.707031 301.710938 436.335938 C 301.710938 435.964844 301.675781 435.597656 301.605469 435.238281 C 301.53125 434.875 301.421875 434.519531 301.28125 434.179688 C 301.136719 433.839844 300.964844 433.515625 300.757812 433.207031 C 300.550781 432.898438 300.316406 432.617188 300.054688 432.355469 L 292.085938 424.449219 C 291.832031 424.15625 291.554688 423.890625 291.25 423.65625 C 290.941406 423.421875 290.613281 423.21875 290.265625 423.050781 C 289.917969 422.882812 289.558594 422.75 289.183594 422.65625 C 288.808594 422.5625 288.425781 422.511719 288.039062 422.496094 C 287.652344 422.480469 287.269531 422.503906 286.886719 422.570312 C 286.507812 422.632812 286.136719 422.738281 285.777344 422.878906 C 285.417969 423.019531 285.074219 423.195312 284.75 423.40625 C 284.429688 423.617188 284.128906 423.859375 283.855469 424.132812 C 283.582031 424.40625 283.339844 424.703125 283.128906 425.027344 C 282.917969 425.351562 282.738281 425.691406 282.597656 426.050781 C 282.457031 426.410156 282.355469 426.78125 282.289062 427.164062 C 282.226562 427.542969 282.203125 427.925781 282.214844 428.3125 C 282.230469 428.699219 282.285156 429.078125 282.378906 429.453125 C 282.472656 429.828125 282.605469 430.191406 282.773438 430.539062 C 282.941406 430.886719 283.144531 431.214844 283.378906 431.519531 C 283.617188 431.824219 283.878906 432.105469 284.171875 432.355469 Z M 292.085938 440.316406 " fill-opacity="1" fill-rule="nonzero"/><path fill="#000000" d="M 307.851562 386.441406 L 319.074219 386.441406 C 319.441406 386.441406 319.808594 386.40625 320.167969 386.332031 C 320.53125 386.261719 320.878906 386.15625 321.222656 386.015625 C 321.5625 385.871094 321.882812 385.699219 322.191406 385.496094 C 322.496094 385.292969 322.78125 385.058594 323.042969 384.796875 C 323.300781 384.539062 323.535156 384.253906 323.738281 383.949219 C 323.945312 383.644531 324.117188 383.320312 324.257812 382.980469 C 324.398438 382.640625 324.503906 382.289062 324.578125 381.929688 C 324.648438 381.566406 324.683594 381.203125 324.683594 380.835938 C 324.683594 380.464844 324.648438 380.101562 324.578125 379.742188 C 324.503906 379.378906 324.398438 379.027344 324.257812 378.6875 C 324.117188 378.347656 323.945312 378.027344 323.738281 377.71875 C 323.535156 377.414062 323.300781 377.128906 323.042969 376.871094 C 322.78125 376.609375 322.496094 376.378906 322.191406 376.171875 C 321.882812 375.96875 321.5625 375.796875 321.222656 375.65625 C 320.878906 375.515625 320.53125 375.40625 320.167969 375.335938 C 319.808594 375.265625 319.441406 375.226562 319.074219 375.226562 L 307.851562 375.226562 C 307.484375 375.226562 307.117188 375.265625 306.757812 375.335938 C 306.394531 375.40625 306.046875 375.515625 305.703125 375.65625 C 305.363281 375.796875 305.039062 375.96875 304.734375 376.171875 C 304.429688 376.378906 304.144531 376.609375 303.882812 376.871094 C 303.625 377.128906 303.390625 377.414062 303.1875 377.71875 C 302.980469 378.027344 302.808594 378.347656 302.667969 378.6875 C 302.527344 379.027344 302.421875 379.378906 302.347656 379.742188 C 302.277344 380.101562 302.242188 380.464844 302.242188 380.835938 C 302.242188 381.203125 302.277344 381.566406 302.347656 381.929688 C 302.421875 382.289062 302.527344 382.640625 302.667969 382.980469 C 302.808594 383.320312 302.980469 383.644531 303.1875 383.949219 C 303.390625 384.253906 303.625 384.539062 303.882812 384.796875 C 304.144531 385.058594 304.429688 385.292969 304.734375 385.496094 C 305.039062 385.699219 305.363281 385.871094 305.703125 386.015625 C 306.046875 386.15625 306.394531 386.261719 306.757812 386.332031 C 307.117188 386.40625 307.484375 386.441406 307.851562 386.441406 Z M 307.851562 386.441406 " fill-opacity="1" fill-rule="nonzero"/><path fill="#000000" d="M 288.15625 338.84375 C 288.894531 338.839844 289.601562 338.699219 290.28125 338.417969 C 290.960938 338.136719 291.5625 337.734375 292.085938 337.21875 L 300.054688 329.3125 C 300.3125 329.050781 300.546875 328.765625 300.753906 328.460938 C 300.957031 328.152344 301.132812 327.828125 301.273438 327.488281 C 301.414062 327.144531 301.519531 326.792969 301.59375 326.429688 C 301.664062 326.070312 301.699219 325.703125 301.699219 325.332031 C 301.699219 324.964844 301.664062 324.597656 301.589844 324.234375 C 301.519531 323.875 301.410156 323.523438 301.269531 323.179688 C 301.128906 322.839844 300.957031 322.515625 300.75 322.207031 C 300.542969 321.902344 300.3125 321.617188 300.050781 321.355469 C 299.789062 321.09375 299.503906 320.859375 299.195312 320.65625 C 298.890625 320.449219 298.566406 320.277344 298.222656 320.136719 C 297.882812 319.996094 297.527344 319.886719 297.167969 319.816406 C 296.804688 319.742188 296.4375 319.707031 296.066406 319.707031 C 295.699219 319.707031 295.332031 319.742188 294.96875 319.8125 C 294.605469 319.886719 294.253906 319.992188 293.914062 320.132812 C 293.570312 320.273438 293.246094 320.449219 292.9375 320.652344 C 292.632812 320.859375 292.347656 321.089844 292.085938 321.351562 L 284.171875 329.3125 C 283.914062 329.574219 283.683594 329.855469 283.480469 330.160156 C 283.277344 330.464844 283.105469 330.789062 282.964844 331.128906 C 282.824219 331.46875 282.71875 331.816406 282.648438 332.175781 C 282.578125 332.535156 282.542969 332.898438 282.542969 333.265625 C 282.542969 333.632812 282.578125 333.996094 282.648438 334.355469 C 282.71875 334.714844 282.824219 335.0625 282.964844 335.402344 C 283.105469 335.742188 283.277344 336.066406 283.480469 336.371094 C 283.683594 336.675781 283.914062 336.957031 284.171875 337.21875 C 284.703125 337.742188 285.3125 338.144531 286.003906 338.425781 C 286.695312 338.710938 287.410156 338.847656 288.15625 338.84375 Z M 288.15625 338.84375 " fill-opacity="1" fill-rule="nonzero"/><g fill="#000000" fill-opacity="1"><g transform="translate(97.870766, 269.001815)"><g><path d="M 64.328125 -24.953125 C 64.328125 -16.835938 61.410156 -10.441406 55.578125 -5.765625 C 49.742188 -1.097656 41.625 1.234375 31.21875 1.234375 C 21.632812 1.234375 13.15625 -0.566406 5.78125 -4.171875 L 5.78125 -21.875 C 11.84375 -19.164062 16.972656 -17.257812 21.171875 -16.15625 C 25.367188 -15.050781 29.207031 -14.5 32.6875 -14.5 C 36.863281 -14.5 40.066406 -15.296875 42.296875 -16.890625 C 44.535156 -18.492188 45.65625 -20.875 45.65625 -24.03125 C 45.65625 -25.789062 45.160156 -27.351562 44.171875 -28.71875 C 43.191406 -30.09375 41.75 -31.414062 39.84375 -32.6875 C 37.9375 -33.957031 34.054688 -35.984375 28.203125 -38.765625 C 22.710938 -41.347656 18.59375 -43.828125 15.84375 -46.203125 C 13.101562 -48.578125 10.914062 -51.34375 9.28125 -54.5 C 7.644531 -57.65625 6.828125 -61.34375 6.828125 -65.5625 C 6.828125 -73.507812 9.519531 -79.753906 14.90625 -84.296875 C 20.289062 -88.847656 27.734375 -91.125 37.234375 -91.125 C 41.898438 -91.125 46.351562 -90.570312 50.59375 -89.46875 C 54.84375 -88.363281 59.28125 -86.804688 63.90625 -84.796875 L 57.765625 -69.984375 C 52.972656 -71.953125 49.007812 -73.320312 45.875 -74.09375 C 42.738281 -74.875 39.65625 -75.265625 36.625 -75.265625 C 33.019531 -75.265625 30.253906 -74.425781 28.328125 -72.75 C 26.398438 -71.070312 25.4375 -68.878906 25.4375 -66.171875 C 25.4375 -64.492188 25.828125 -63.03125 26.609375 -61.78125 C 27.390625 -60.53125 28.628906 -59.320312 30.328125 -58.15625 C 32.023438 -56.988281 36.050781 -54.890625 42.40625 -51.859375 C 50.800781 -47.847656 56.550781 -43.820312 59.65625 -39.78125 C 62.769531 -35.75 64.328125 -30.804688 64.328125 -24.953125 Z M 64.328125 -24.953125 "/></g></g></g><g fill="#000000" fill-opacity="1"><g transform="translate(167.180025, 269.001815)"><g><path d="M 66.296875 0 L 59.78125 -21.390625 L 27.03125 -21.390625 L 20.515625 0 L 0 0 L 31.703125 -90.203125 L 55 -90.203125 L 86.828125 0 Z M 55.234375 -37.359375 C 49.210938 -56.734375 45.820312 -67.691406 45.0625 -70.234375 C 44.3125 -72.773438 43.769531 -74.78125 43.4375 -76.25 C 42.09375 -71.007812 38.222656 -58.046875 31.828125 -37.359375 Z M 55.234375 -37.359375 "/></g></g></g><g fill="#000000" fill-opacity="1"><g transform="translate(254.000945, 269.001815)"><g><path d="M 49.34375 0 L 27.71875 -70.484375 L 27.15625 -70.484375 C 27.9375 -56.140625 28.328125 -46.570312 28.328125 -41.78125 L 28.328125 0 L 11.3125 0 L 11.3125 -89.828125 L 37.234375 -89.828125 L 58.5 -21.140625 L 58.859375 -21.140625 L 81.421875 -89.828125 L 107.34375 -89.828125 L 107.34375 0 L 89.59375 0 L 89.59375 -42.515625 C 89.59375 -44.523438 89.625 -46.835938 89.6875 -49.453125 C 89.75 -52.078125 90.023438 -59.046875 90.515625 -70.359375 L 89.953125 -70.359375 L 66.796875 0 Z M 49.34375 0 "/></g></g></g><g fill="#000000" fill-opacity="1"><g transform="translate(372.650053, 269.001815)"><g><path d="M 11.3125 0 L 11.3125 -89.828125 L 30.359375 -89.828125 L 30.359375 0 Z M 11.3125 0 "/></g></g></g><g fill="#000000" fill-opacity="1"><g transform="translate(414.309342, 269.001815)"><g><path d="M 30.359375 -49.953125 L 36.5 -49.953125 C 42.519531 -49.953125 46.960938 -50.957031 49.828125 -52.96875 C 52.703125 -54.976562 54.140625 -58.132812 54.140625 -62.4375 C 54.140625 -66.695312 52.671875 -69.726562 49.734375 -71.53125 C 46.804688 -73.332031 42.269531 -74.234375 36.125 -74.234375 L 30.359375 -74.234375 Z M 30.359375 -34.46875 L 30.359375 0 L 11.3125 0 L 11.3125 -89.828125 L 37.484375 -89.828125 C 49.691406 -89.828125 58.722656 -87.601562 64.578125 -83.15625 C 70.441406 -78.71875 73.375 -71.972656 73.375 -62.921875 C 73.375 -57.640625 71.914062 -52.9375 69 -48.8125 C 66.09375 -44.695312 61.976562 -41.472656 56.65625 -39.140625 C 70.175781 -18.941406 78.984375 -5.894531 83.078125 0 L 61.9375 0 L 40.5 -34.46875 Z M 30.359375 -34.46875 "/></g></g></g></svg>